<svg width="40" height="40" viewBox="0 0 40 40" fill="none" xmlns="http://www.w3.org/2000/svg">
<path d="M0 8C0 3.58172 3.58172 0 8 0H32C36.4183 0 40 3.58172 40 8V32C40 36.4183 36.4183 40 32 40H8C3.58172 40 0 36.4183 0 32V8Z" fill="#FF756B" fill-opacity="0.2"/>
<path d="M15.8333 26.917C16.2475 26.917 16.5833 26.5812 16.5833 26.167C16.5833 25.7528 16.2475 25.417 15.8333 25.417V26.167V26.917ZM24.1667 25.417C23.7525 25.417 23.4167 25.7528 23.4167 26.167C23.4167 26.5812 23.7525 26.917 24.1667 26.917V26.167V25.417ZM21.0667 24.3389C21.3152 24.6703 21.7853 24.7374 22.1167 24.4889C22.448 24.2404 22.5152 23.7703 22.2667 23.4389L21.6667 23.8889L21.0667 24.3389ZM20 21.6667L20.6 21.2167C20.4584 21.0278 20.2361 20.9167 20 20.9167C19.7639 20.9167 19.5416 21.0278 19.4 21.2167L20 21.6667ZM17.7333 23.4389C17.4848 23.7703 17.552 24.2404 17.8833 24.4889C18.2147 24.7374 18.6848 24.6703 18.9333 24.3389L18.3333 23.8889L17.7333 23.4389ZM19.25 26.6667C19.25 27.0809 19.5858 27.4167 20 27.4167C20.4142 27.4167 20.75 27.0809 20.75 26.6667H20H19.25ZM12.5 18.3333V19.0833H27.5V18.3333V17.5833H12.5V18.3333ZM15.8333 13.667V14.417H24.1667V13.667V12.917H15.8333V13.667ZM27.5 17.0003H26.75V18.3333H27.5H28.25V17.0003H27.5ZM27.5 18.3333H26.75V22.8337H27.5H28.25V18.3333H27.5ZM12.5 22.8337H13.25V18.3333H12.5H11.75V22.8337H12.5ZM12.5 18.3333H13.25V17.0003H12.5H11.75V18.3333H12.5ZM15.8333 26.167V25.417C14.4066 25.417 13.25 24.2604 13.25 22.8337H12.5H11.75C11.75 25.0888 13.5782 26.917 15.8333 26.917V26.167ZM27.5 22.8337H26.75C26.75 24.2604 25.5934 25.417 24.1667 25.417V26.167V26.917C26.4218 26.917 28.25 25.0888 28.25 22.8337H27.5ZM24.1667 13.667V14.417C25.5934 14.417 26.75 15.5736 26.75 17.0003H27.5H28.25C28.25 14.7452 26.4218 12.917 24.1667 12.917V13.667ZM15.8333 13.667V12.917C13.5782 12.917 11.75 14.7452 11.75 17.0003H12.5H13.25C13.25 15.5736 14.4066 14.417 15.8333 14.417V13.667ZM21.6667 23.8889L22.2667 23.4389L20.6 21.2167L20 21.6667L19.4 22.1167L21.0667 24.3389L21.6667 23.8889ZM20 21.6667L19.4 21.2167L17.7333 23.4389L18.3333 23.8889L18.9333 24.3389L20.6 22.1167L20 21.6667ZM20 21.6667H19.25V26.6667H20H20.75V21.6667H20Z" fill="#FF756B"/>
</svg>
