<svg width="40" height="40" viewBox="0 0 40 40" fill="none" xmlns="http://www.w3.org/2000/svg">
<path d="M0 8C0 3.58172 3.58172 0 8 0H32C36.4183 0 40 3.58172 40 8V32C40 36.4183 36.4183 40 32 40H8C3.58172 40 0 36.4183 0 32V8Z" fill="#E1F7EB"/>
<path d="M12.5834 28.3337C12.5834 28.7479 12.9192 29.0837 13.3334 29.0837C13.7476 29.0837 14.0834 28.7479 14.0834 28.3337H13.3334H12.5834ZM13.3334 11.667V10.917C12.9192 10.917 12.5834 11.2528 12.5834 11.667H13.3334ZM26.25 11.667H27C27 11.2528 26.6643 10.917 26.25 10.917V11.667ZM26.25 20.9263V21.6763C26.6643 21.6763 27 21.3405 27 20.9263H26.25ZM13.3334 11.667V12.417H26.25V11.667V10.917H13.3334V11.667ZM26.25 11.667H25.5V16.2503H26.25H27V11.667H26.25ZM26.25 16.2503H25.5V20.9263H26.25H27V16.2503H26.25ZM13.3334 28.3337H14.0834V20.9263H13.3334H12.5834V28.3337H13.3334ZM13.3334 20.9263H14.0834V11.667H13.3334H12.5834V20.9263H13.3334ZM26.25 20.9263V20.1763H13.3334V20.9263V21.6763H26.25V20.9263Z" fill="#009F51"/>
</svg>
