<svg width="170" height="39" viewBox="0 0 170 39" fill="none" xmlns="http://www.w3.org/2000/svg">
<path d="M56.7739 27.1853C55.2946 27.2212 53.8309 26.8757 52.5241 26.1819C51.3323 25.5293 50.3581 24.5415 49.7226 23.3414C49.0329 22.0121 48.6906 20.5305 48.7268 19.0338C48.689 17.5341 49.0313 16.0491 49.7226 14.717C50.3618 13.522 51.3353 12.5384 52.5241 11.8857C53.8316 11.1942 55.2948 10.8497 56.7739 10.8853C57.9814 10.8641 59.1795 11.0997 60.2888 11.5765C61.2798 12.0108 62.1436 12.69 62.7992 13.5499C63.4631 14.4525 63.8814 15.5116 64.0134 16.6238H60.1978C60.1472 16.2557 60.0216 15.9017 59.8288 15.5837C59.6362 15.2658 59.3808 14.9904 59.0776 14.7746C58.3912 14.3139 57.576 14.0826 56.7495 14.1138C55.3998 14.1138 54.3324 14.5483 53.5471 15.4173C52.7621 16.2863 52.3785 17.4918 52.3967 19.0338C52.3967 20.5798 52.7904 21.7863 53.5775 22.6533C54.3646 23.5204 55.4321 23.9548 56.7799 23.9569C57.6064 23.988 58.4216 23.7567 59.108 23.296C59.411 23.0802 59.6667 22.8049 59.8592 22.4869C60.0518 22.1689 60.1773 21.815 60.2282 21.4468H64.0438C63.9079 22.5553 63.4898 23.6105 62.8296 24.5116C62.1766 25.3761 61.3121 26.0589 60.3192 26.4942C59.2004 26.9752 57.9915 27.2109 56.7739 27.1853Z" fill="#E1F7EB"/>
<path d="M64.235 26.8746V10.5352H67.8167V16.8011H67.8957C68.2574 16.2171 68.7773 15.7474 69.3953 15.4461C70.0933 15.1229 70.8572 14.9662 71.6263 14.9883C73.0913 14.9883 74.253 15.436 75.1111 16.3312C75.9689 17.2265 76.3969 18.425 76.3951 19.9265V26.8746H72.8131V20.6329C72.8352 20.3027 72.7903 19.9715 72.6813 19.659C72.5721 19.3465 72.4014 19.0591 72.1787 18.814C71.7569 18.4017 71.1375 18.1926 70.3211 18.1926C69.5045 18.1926 68.8823 18.4017 68.4603 18.814C68.2378 19.0591 68.0669 19.3465 67.9579 19.659C67.8487 19.9715 67.8041 20.3027 67.8259 20.6329V26.8746H64.235Z" fill="#E1F7EB"/>
<path d="M81.391 27.089C79.9927 27.089 78.8988 26.7547 78.1096 26.0858C77.7231 25.7585 77.416 25.3477 77.2119 24.8845C77.0081 24.4213 76.9122 23.9177 76.9318 23.4121C76.9058 22.8994 77.0048 22.3882 77.2207 21.9224C77.4363 21.4566 77.7622 21.0502 78.1704 20.7382C78.9939 20.1077 80.1717 19.7934 81.7036 19.7955H84.8391V19.365C84.8391 18.304 84.1644 17.7735 82.8145 17.7735C81.6186 17.7735 80.8932 18.1736 80.6322 18.9861H77.0866C77.2852 17.7833 77.9504 16.7071 78.9384 15.991C79.8976 15.318 81.1825 14.9805 82.7934 14.9785C84.5721 14.9785 85.9289 15.3716 86.8639 16.1577C87.7987 16.9439 88.2672 18.0877 88.2693 19.5893V23.3817H89.9419V26.8738H86.3599V24.9308H85.5403C85.166 25.6016 84.6136 26.1565 83.9437 26.5343C83.1541 26.9332 82.2753 27.1242 81.391 27.089ZM81.9374 24.4063C82.4591 24.4143 82.9765 24.3109 83.4552 24.1031C83.8615 23.9338 84.2149 23.6583 84.4779 23.3059C84.7207 22.9801 84.8506 22.5842 84.8483 22.1782V22.1145H81.8706C80.8688 22.1145 80.368 22.4874 80.368 23.2241C80.3595 23.392 80.3933 23.5595 80.4666 23.7108C80.5398 23.8624 80.6499 23.993 80.787 24.0909C81.1284 24.3128 81.5303 24.4229 81.9374 24.4063Z" fill="#E1F7EB"/>
<path d="M90.9158 26.8737V18.6889H89.1644V15.2027H92.7492V17.1489H93.5658C94.011 16.4954 94.601 15.9529 95.29 15.5635C96.0996 15.1516 97.0015 14.9544 97.9095 14.9905C99.5729 14.9905 100.849 15.4382 101.737 16.3335C102.626 17.2287 103.07 18.4272 103.07 19.9287V26.8737H99.4879V20.632C99.5098 20.3018 99.4649 19.9706 99.3559 19.6582C99.247 19.3457 99.076 19.0583 98.8535 18.8132C98.4315 18.4009 97.8123 18.1917 96.9927 18.1917C96.1731 18.1917 95.5539 18.4009 95.1352 18.8132C94.9124 19.0583 94.7415 19.3457 94.6325 19.6582C94.5236 19.9706 94.4787 20.3018 94.5005 20.632V26.8737H90.9158Z" fill="#E1F7EB"/>
<path d="M109.985 31.7763C108.178 31.7763 106.714 31.4167 105.593 30.6973C105.059 30.3737 104.604 29.9367 104.259 29.4175C103.914 28.8983 103.687 28.3095 103.596 27.6931H107.375C107.672 28.5479 108.497 28.9755 109.848 28.9755C110.796 28.9755 111.521 28.7631 112.019 28.3358C112.272 28.1079 112.471 27.8262 112.601 27.5113C112.73 27.1967 112.788 26.8567 112.769 26.5169V25.0588H112.671C112.335 25.6427 111.838 26.1182 111.239 26.4289C110.569 26.7528 109.831 26.9099 109.087 26.8866C108.088 26.9103 107.102 26.6586 106.236 26.1592C105.419 25.6653 104.762 24.945 104.345 24.0858C103.878 23.1026 103.648 22.0239 103.675 20.936C103.675 19.1172 104.18 17.6712 105.192 16.598C106.204 15.5249 107.596 14.9863 109.369 14.9823C110.252 14.9593 111.126 15.1573 111.913 15.5583C112.61 15.9299 113.192 16.4843 113.597 17.1619H114.414V15.2036H117.999V18.7049H116.244V26.5047C116.244 28.1923 115.706 29.4928 114.629 30.4062C113.553 31.3198 112.005 31.7763 109.985 31.7763ZM109.985 23.7644C110.342 23.7863 110.699 23.7372 111.037 23.6202C111.375 23.503 111.686 23.3203 111.952 23.0824C112.193 22.8332 112.379 22.5372 112.5 22.2127C112.621 21.8882 112.673 21.5423 112.653 21.1967V20.5995C112.673 20.2578 112.62 19.9157 112.497 19.5959C112.375 19.2762 112.186 18.986 111.943 18.7443C111.404 18.2721 110.701 18.0304 109.985 18.0713C109.615 18.0477 109.245 18.1023 108.898 18.2312C108.55 18.3603 108.234 18.5609 107.97 18.8201C107.461 19.4057 107.204 20.1684 107.256 20.9421C107.256 21.8515 107.494 22.5487 107.97 23.0338C108.237 23.2878 108.554 23.4839 108.901 23.6096C109.248 23.7354 109.617 23.7879 109.985 23.7644Z" fill="#E1F7EB"/>
<path d="M123.638 31.543V18.705H121.883V15.2037H125.468V17.1499H126.285C126.69 16.4716 127.274 15.917 127.973 15.5463C128.758 15.1447 129.631 14.9466 130.513 14.9703C131.597 14.9327 132.67 15.1995 133.609 15.7403C134.435 16.2456 135.092 16.984 135.497 17.8623C135.946 18.8582 136.165 19.9415 136.141 21.0332C136.164 22.1254 135.952 23.21 135.519 24.2132C135.134 25.0844 134.501 25.8227 133.697 26.3352C132.83 26.8618 131.828 27.1251 130.814 27.0931C130.079 27.1131 129.35 26.956 128.689 26.6351C128.116 26.3488 127.633 25.909 127.296 25.365H127.217V31.543H123.638ZM129.83 23.9948C130.753 23.9948 131.438 23.7301 131.885 23.2006C132.362 22.5842 132.601 21.8171 132.559 21.0392C132.601 20.2623 132.362 19.4961 131.885 18.8808C131.438 18.3514 130.753 18.0856 129.83 18.0836C129.483 18.0648 129.136 18.1146 128.808 18.23C128.481 18.3455 128.179 18.5244 127.921 18.7565C127.682 18.9983 127.497 19.287 127.376 19.6043C127.255 19.9217 127.202 20.2606 127.22 20.5997V21.4545C127.2 21.796 127.252 22.1378 127.373 22.4579C127.494 22.778 127.68 23.0693 127.921 23.3127C128.178 23.5466 128.48 23.7272 128.807 23.8442C129.135 23.9612 129.483 24.0123 129.83 23.9948Z" fill="#E1F7EB"/>
<path d="M140.6 27.089C139.198 27.089 138.104 26.7547 137.319 26.0858C136.933 25.7585 136.626 25.3477 136.421 24.8845C136.217 24.4213 136.122 23.9177 136.141 23.4121C136.116 22.8998 136.214 22.3889 136.43 21.9232C136.645 21.4575 136.97 21.0509 137.377 20.7382C138.203 20.1077 139.381 19.7934 140.913 19.7955H144.049V19.365C144.049 18.304 143.374 17.7735 142.024 17.7735C140.828 17.7735 140.103 18.1736 139.841 18.9861H136.296C136.495 17.7833 137.16 16.7071 138.148 15.991C139.107 15.318 140.392 14.9805 142.003 14.9785C143.782 14.9785 145.138 15.3716 146.073 16.1577C147.008 16.9439 147.476 18.0877 147.476 19.5893V23.3817H149.151V26.8738H145.585V24.9308H144.765C144.391 25.6016 143.838 26.1565 143.168 26.5343C142.374 26.9358 141.49 27.127 140.6 27.089ZM141.147 24.4063C141.669 24.4143 142.186 24.3109 142.664 24.1031C143.071 23.9329 143.424 23.6579 143.687 23.3059C143.93 22.9801 144.06 22.5842 144.058 22.1782V22.1145H141.077C140.078 22.1145 139.578 22.4874 139.578 23.2241C139.569 23.392 139.603 23.5595 139.676 23.7108C139.749 23.8624 139.859 23.993 139.996 24.0909C140.338 24.313 140.74 24.4233 141.147 24.4063Z" fill="#E1F7EB"/>
<path d="M149.579 31.543V28.6661H152.074L152.872 26.7381L147.903 15.2188H151.701L154.736 22.67H154.815L157.796 15.2188H161.496L156.472 26.8897L155.595 28.9723C155.317 29.6926 154.888 30.3456 154.338 30.8881C153.853 31.3368 153.124 31.5582 152.186 31.5582L149.579 31.543Z" fill="#E1F7EB"/>
<path d="M165.115 15.3365H164.565V12.8871H163.564V12.3809H166.116V12.8871H165.115V15.3365ZM166.739 15.3365V12.3809H167.492L168.354 14.5847H168.381L169.24 12.3809H169.996V15.3365H169.446V13.1114H169.416L168.578 15.3365H168.12L167.279 13.1054H167.246V15.3365H166.739Z" fill="#E1F7EB"/>
<path d="M35.4886 12.1593C35.4631 12.1138 35.426 12.0756 35.3813 12.0485C35.3368 12.0214 35.2859 12.0064 35.2336 12.0047L30.3343 11.8925L30.3891 11.8016C30.4156 11.7555 30.4296 11.7032 30.4296 11.65C30.4296 11.5968 30.4156 11.5445 30.3891 11.4984L24.3182 0.433705C24.2926 0.388197 24.2557 0.350053 24.2111 0.322968C24.1664 0.295883 24.1155 0.28077 24.0632 0.2791L11.4357 -0.00583767C11.3836 -0.00645986 11.3322 0.00630629 11.2865 0.0312596C11.2408 0.056213 11.2023 0.0925046 11.1747 0.136631L4.61204 10.9164C4.58541 10.9625 4.57138 11.0148 4.57138 11.068C4.57138 11.1212 4.58541 11.1735 4.61204 11.2195L6.96451 15.512H6.86433C6.81225 15.5114 6.76086 15.5242 6.71513 15.5492C6.66943 15.5741 6.63091 15.6104 6.6033 15.6545L0.0406666 26.4343C0.0140249 26.4804 0 26.5327 0 26.5859C0 26.6391 0.0140249 26.6914 0.0406666 26.7374L6.11156 37.8022C6.13713 37.8478 6.17403 37.8858 6.21872 37.913C6.26339 37.9399 6.3143 37.9551 6.36652 37.9567L18.994 38.2417C19.0466 38.2428 19.0986 38.2304 19.1449 38.2053C19.1912 38.1804 19.2302 38.1438 19.2581 38.0993L21.8018 33.9189L21.8534 34.0099C21.8789 34.0553 21.9158 34.0935 21.9605 34.1207C22.0052 34.1476 22.0561 34.1628 22.1083 34.1645L34.7359 34.4494C34.7884 34.4506 34.8404 34.4381 34.8867 34.413C34.933 34.3881 34.972 34.3515 34.9998 34.3068L41.5594 23.5272C41.5861 23.4812 41.6001 23.4289 41.6001 23.3757C41.6001 23.3225 41.5861 23.2702 41.5594 23.2241L35.4886 12.1593ZM32.1799 17.4613L25.6204 28.2409C25.5929 28.2861 25.554 28.3234 25.5077 28.3488C25.4614 28.3743 25.4091 28.3874 25.3561 28.3865L19.1943 28.2472C19.1426 28.2472 19.0917 28.2605 19.0466 28.2859C19.0015 28.3112 18.9636 28.3476 18.9365 28.3916C18.9095 28.4358 18.8941 28.486 18.8919 28.5376C18.8898 28.5892 18.9009 28.6406 18.9241 28.6867L21.2857 32.9913L16.2924 32.8791C16.2402 32.8775 16.1893 32.8623 16.1446 32.8353C16.0999 32.8081 16.063 32.7701 16.0374 32.7245L9.96655 21.6598C9.9399 21.6137 9.92587 21.5614 9.92587 21.5082C9.92587 21.455 9.9399 21.4027 9.96655 21.3567L13.169 16.0941C13.1943 16.0493 13.2078 15.9989 13.2082 15.9475C13.2086 15.896 13.1959 15.8454 13.1714 15.8002C13.1468 15.755 13.1111 15.7169 13.0676 15.6892C13.0242 15.6616 12.9745 15.6455 12.9231 15.6424L8.0087 15.5302L10.604 11.268C10.6316 11.2239 10.6701 11.1876 10.7158 11.1627C10.7616 11.1377 10.813 11.1249 10.865 11.1256L23.4926 11.4105C23.5451 11.4103 23.5969 11.4246 23.6419 11.4519C23.6868 11.4792 23.7234 11.5184 23.7474 11.5651L26.7101 16.9641C26.7373 17.008 26.7753 17.0442 26.8205 17.0693C26.8656 17.0944 26.9163 17.1076 26.9681 17.1076C27.0197 17.1076 27.0707 17.0944 27.1158 17.0693C27.1609 17.0442 27.199 17.008 27.2261 16.9641L29.7789 12.7716L32.1799 17.146C32.2089 17.1935 32.2241 17.248 32.2241 17.3036C32.2241 17.3592 32.2089 17.4138 32.1799 17.4613Z" fill="#E1F7EB"/>
</svg>
