<svg width="18" height="19" viewBox="0 0 18 19" fill="none" xmlns="http://www.w3.org/2000/svg">
<path d="M10.006 17.1797C8.99902 18.2979 7.42811 18.3112 6.41146 17.1797M0.750038 4.95311C0.744419 3.77461 1.35934 2.23488 3.27941 1.54689M16.2793 4.95309C16.285 3.77459 15.67 2.23486 13.75 1.54688M8.24258 14.9577C12.4055 14.9577 14.3314 14.4237 14.5173 12.2801C14.5173 10.1381 13.1747 10.2758 13.1747 7.64759C13.1747 5.59465 11.2288 3.25886 8.24258 3.25886C5.25636 3.25886 3.31051 5.59465 3.31051 7.64759C3.31051 10.2758 1.96782 10.1381 1.96782 12.2801C2.15455 14.4318 4.0804 14.9577 8.24258 14.9577ZM9.46428 2.00443C9.46428 2.69724 8.90265 3.25886 8.20985 3.25886C7.51705 3.25886 6.95542 2.69724 6.95542 2.00443C6.95542 1.31163 7.51705 0.75 8.20985 0.75C8.90265 0.75 9.46428 1.31163 9.46428 2.00443Z" stroke="#1A0C21" stroke-width="1.5" stroke-linecap="round" stroke-linejoin="round"/>
</svg>
