<svg width="34" height="34" viewBox="0 0 34 34" fill="none" xmlns="http://www.w3.org/2000/svg">
<rect width="33.0476" height="33.0476" rx="16.5238" fill="#F6F6F6"/>
<path fill-rule="evenodd" clip-rule="evenodd" d="M13.1311 13.5448C13.1316 11.5976 14.615 9.95215 16.5242 9.95215C18.4338 9.95215 19.9173 11.5982 19.9173 13.5458C19.9173 15.4944 18.4337 17.1395 16.5242 17.1395H16.5035L16.5014 17.1395C14.5973 17.1327 13.1247 15.4863 13.1311 13.5448ZM13.1311 13.5448L13.1311 13.5438L13.1311 13.5458V13.5448ZM12.583 11.187C12.6368 11.4934 12.4321 11.7855 12.1257 11.8393C11.4059 11.9658 10.8089 12.6519 10.8087 13.5343C10.8107 14.4305 11.4259 15.1216 12.1608 15.2321C12.4685 15.2784 12.6804 15.5653 12.6341 15.873C12.5879 16.1806 12.301 16.3925 11.9933 16.3462C10.6596 16.1457 9.68476 14.9391 9.68204 13.536L9.68204 13.5349C9.68204 12.1514 10.6277 10.9587 11.9307 10.7297C12.2371 10.6759 12.5291 10.8806 12.583 11.187ZM20.4649 11.187C20.5188 10.8806 20.8108 10.6759 21.1172 10.7297C22.4202 10.9587 23.3659 12.1514 23.3659 13.5349L23.3659 13.536C23.3631 14.9392 22.3874 16.1457 21.0546 16.3462C20.747 16.3925 20.4601 16.1807 20.4138 15.873C20.3675 15.5654 20.5794 15.2784 20.887 15.2322C21.6214 15.1217 22.2372 14.4304 22.2392 13.5345C22.2391 12.6519 21.6421 11.9658 20.9222 11.8393C20.6158 11.7855 20.4111 11.4934 20.4649 11.187ZM11.2691 18.363C11.3183 18.6702 11.1091 18.9591 10.8019 19.0083C10.335 19.083 10.0086 19.1991 9.81129 19.3377C9.64272 19.4561 9.57633 19.58 9.57633 19.7613C9.57633 19.9007 9.61556 19.9926 9.67846 20.0688C9.74963 20.155 9.87581 20.2493 10.0871 20.3357C10.3751 20.4534 10.5132 20.7823 10.3955 21.0703C10.2778 21.3582 9.94894 21.4963 9.66095 21.3786C9.34025 21.2476 9.03592 21.0602 8.80958 20.786C8.57498 20.5017 8.44971 20.1544 8.44971 19.7613C8.44971 19.169 8.7327 18.7185 9.16377 18.4157C9.5661 18.1331 10.0896 17.9814 10.6238 17.8958C10.931 17.8467 11.2199 18.0558 11.2691 18.363ZM21.7786 18.363C21.8278 18.0558 22.1167 17.8467 22.4239 17.8958C22.9581 17.9814 23.4816 18.1331 23.8839 18.4157C24.315 18.7185 24.598 19.169 24.598 19.7613C24.598 20.1544 24.4727 20.5017 24.2381 20.786C24.0117 21.0602 23.7074 21.2476 23.3867 21.3786C23.0987 21.4963 22.7699 21.3582 22.6522 21.0703C22.5345 20.7823 22.6725 20.4534 22.9605 20.3357C23.1719 20.2493 23.298 20.155 23.3692 20.0688C23.4321 19.9926 23.4713 19.9007 23.4713 19.7613C23.4713 19.58 23.4049 19.4561 23.2364 19.3377C23.0391 19.1991 22.7126 19.083 22.2458 19.0083C21.9386 18.9591 21.7294 18.6702 21.7786 18.363ZM13.2334 18.6374C14.1354 18.3134 15.3206 18.2181 16.5247 18.2181C17.7359 18.2181 18.9216 18.3167 19.8225 18.6446C20.2773 18.8102 20.6972 19.0474 21.0069 19.3948C21.3272 19.7543 21.5028 20.2027 21.5028 20.7247C21.5028 21.2477 21.3256 21.696 21.0031 22.0541C20.6918 22.3999 20.2702 22.6344 19.815 22.7974C18.9133 23.1203 17.7283 23.2146 16.5247 23.2146C15.3136 23.2146 14.1278 23.1164 13.2268 22.7892C12.772 22.624 12.352 22.3873 12.0421 22.0402C11.7216 21.6811 11.5458 21.233 11.5458 20.7112C11.5458 20.1882 11.7231 19.74 12.0454 19.3817C12.3567 19.0358 12.7782 18.8009 13.2334 18.6374Z" fill="#1A1D1F"/>
</svg>
