<svg width="40" height="40" viewBox="0 0 40 40" fill="none" xmlns="http://www.w3.org/2000/svg">
<path d="M0 8C0 3.58172 3.58172 0 8 0H32C36.4183 0 40 3.58172 40 8V32C40 36.4183 36.4183 40 32 40H8C3.58172 40 0 36.4183 0 32V8Z" fill="#DBEAFE"/>
<path d="M21.1458 18.4166H18.8541M21.1458 18.4166C21.7786 18.4166 22.2916 18.9389 22.2916 19.5833V21.3333C22.2916 21.9776 21.7786 22.4999 21.1458 22.4999H18.8541C18.2213 22.4999 17.7083 21.9776 17.7083 21.3333V19.5833C17.7083 18.9389 18.2213 18.4166 18.8541 18.4166M21.1458 18.4166V17.8333C21.1458 17.1889 20.6328 16.6666 20 16.6666C19.3671 16.6666 18.8541 17.1889 18.8541 17.8333V18.4166M12.624 16.0538L12.9969 20.0146C13.276 22.9783 14.8608 25.6635 17.3205 27.3401L17.6531 27.5669C19.0689 28.5319 20.931 28.5319 22.3468 27.5669L22.6794 27.3401C25.1391 25.6635 26.7239 22.9783 27.003 20.0146L27.3759 16.0538C27.4486 15.2824 26.9805 14.5612 26.2591 14.2786C25.2649 13.8891 23.8139 13.2713 22.4403 12.5039C20.9652 11.6797 19.0347 11.6797 17.5596 12.5039C16.186 13.2713 14.735 13.8891 13.7408 14.2786C13.0194 14.5612 12.5514 15.2824 12.624 16.0538Z" stroke="#3872ED" stroke-width="1.5" stroke-linecap="round" stroke-linejoin="round"/>
</svg>
